<svg width="120" height="143" viewBox="0 0 120 143" fill="none" xmlns="http://www.w3.org/2000/svg">
<path fill-rule="evenodd" clip-rule="evenodd" d="M68.2903 66.6895C68.1195 67.0292 68.0575 67.4043 67.8501 67.5198C67.1596 67.9042 66.6993 68.5257 66.1457 69.0434C65.4665 69.6779 64.9338 70.5022 64.2523 71.0854C63.316 71.8866 62.4259 72.7547 61.5794 73.6185C60.7064 74.5088 59.6923 75.259 58.9081 76.2491C58.5571 76.692 57.9812 76.9554 57.5161 77.3126C57.4665 77.351 57.4781 77.4702 57.457 77.5745C57.5547 77.6355 57.6589 77.7001 57.7918 77.7828C58.3092 77.2421 58.7364 76.5833 59.342 76.2267C59.8854 75.9062 60.0567 75.2471 60.5212 75.0519C61.0796 74.817 61.1683 74.1536 61.6527 74.026C62.2229 73.8761 62.1966 73.2091 62.6808 73.0562C63.2609 72.873 63.3126 72.1733 63.7489 71.9277C64.3618 71.5831 64.5712 70.7842 65.1088 70.5741C65.8373 70.2893 65.837 69.3091 66.652 69.2414C66.9415 68.5645 67.6084 68.2427 68.0727 67.7307C68.5978 67.152 69.0497 66.4674 69.6745 66.0321C70.2078 65.661 70.4516 65.0118 70.9408 64.7608C71.3949 64.528 71.5077 64.0449 71.8719 63.8842C72.3631 63.6671 72.5653 63.2428 72.8935 62.9048C73.1671 62.6231 73.4572 62.3508 73.7578 62.0904C74.3109 61.6116 74.9413 61.1907 75.2823 60.4993C75.3612 60.3392 75.487 60.0799 75.5957 60.0778C76.2738 60.0643 76.2454 59.2739 76.7599 59.0815C77.3459 58.8621 77.4998 58.2254 77.8801 57.803C78.0005 57.6697 78.0704 57.4131 78.203 57.3829C78.6995 57.2675 78.8127 56.7266 79.1608 56.545C79.64 56.2942 79.5739 55.7872 79.8813 55.4833C80.3397 55.0282 80.7828 54.5566 81.224 54.0837C81.6006 53.68 81.9643 53.2646 82.379 52.8045C82.3771 52.7799 82.3672 52.6582 82.3617 52.5893C82.6803 52.4264 82.9648 52.2811 83.18 52.1719C83.282 51.5487 83.5514 51.1348 84.0663 50.901C84.6341 50.6428 84.6168 50.0638 84.7732 49.5967C84.9533 49.0591 85.8358 49.2 85.7857 48.3615C85.7608 47.9412 86.2775 47.4875 86.5808 46.9993C85.6664 47.4139 85.0773 48.0714 84.6831 48.8471C84.2784 49.6459 83.2769 49.9346 83.0722 50.8668C82.4649 51.0622 82.4189 51.6007 82.3307 52.1296C82.0303 52.1973 81.7361 52.2632 81.3988 52.3386C81.3198 52.6505 81.2491 52.9311 81.1746 53.2255C80.7186 53.3852 80.3191 53.6076 80.4442 54.2115C80.2058 54.2508 79.983 54.2872 79.7216 54.3296C79.0871 55.126 78.6007 56.0835 77.6934 56.6936C77.3101 56.9515 76.9681 57.2943 76.6692 57.6503C76.1089 58.3188 75.5914 59.007 74.9671 59.6368C74.3012 60.309 73.4511 60.8531 73.0129 61.7582C72.9421 61.9051 72.653 61.946 72.454 62.0405C72.4665 62.1977 72.5367 62.3769 72.478 62.4467C72.0083 63.0045 71.521 63.5485 71.0203 64.0786C70.9441 64.1591 70.7697 64.1477 70.6402 64.1796C70.6547 64.3026 70.6691 64.4325 70.6925 64.63C70.3526 64.8046 69.9906 64.9902 69.628 65.1767C69.6353 65.2193 69.6619 65.2727 69.6468 65.3072C69.4003 65.8546 68.74 66.0488 68.5141 66.6269C68.4865 66.6977 68.2701 66.6946 68.2903 66.6895ZM25.2796 107.188C25.1039 107.118 24.9865 107.071 24.804 106.999C24.8058 107.134 24.8079 107.24 24.8103 107.36C24.112 107.688 23.3925 108.003 22.6946 108.36C21.7583 108.838 20.8656 109.374 19.866 109.76C19.018 110.087 18.2241 110.702 17.325 110.841C16.4757 110.974 15.967 111.801 15.0856 111.736C14.448 112.412 13.4794 112.274 12.7289 112.688C12.5083 112.81 12.259 112.819 12.0654 113.059C11.8696 113.3 11.8118 113.253 11.0796 113.154C11.0133 113.223 10.9233 113.311 10.8409 113.406C10.782 113.474 10.72 113.62 10.6811 113.613C9.73859 113.438 9.24754 114.494 8.36187 114.458C8.27834 114.455 8.1519 114.4 8.11692 114.437C7.1303 115.486 5.61987 115.456 4.49429 116.205C4.07251 116.485 3.55977 116.352 3.14324 116.601C2.9646 116.707 2.76572 116.781 2.55253 116.88C2.34846 116.8 2.11937 116.663 1.87573 116.629C1.63099 116.594 1.37119 116.662 1.00008 116.696C1.1632 115.917 1.76742 115.513 1.86032 114.819C1.54983 115.21 1.23935 115.602 0.906346 116.022C0.799284 115.982 0.681192 115.937 0.564312 115.894C1.12179 114.174 1.08849 114.121 2.93838 112.964C4.24752 112.146 5.45636 111.12 7.00351 110.725C7.90354 109.927 9.0685 109.617 10.1033 109.07C11.5144 108.324 13.0004 107.723 14.4279 107.008C16.2251 106.108 18.002 105.168 19.7761 104.223C21.4368 103.339 23.0246 102.338 24.6056 101.313C25.6486 100.637 26.7492 100.017 27.8093 99.3501C28.8698 98.6829 29.9081 97.9801 30.9515 97.2854C31.7163 96.7756 32.5567 96.3403 33.2113 95.7127C33.9038 95.0486 34.8568 94.864 35.5336 94.2125C35.9607 93.8017 36.5796 93.6029 36.8592 93.0223C36.8974 92.942 36.9481 92.8314 37.0175 92.8072C38.1751 92.4114 38.9239 91.4423 39.8784 90.7632C40.8698 90.0574 41.8147 89.2851 42.7605 88.5176C43.2837 88.0932 43.7468 87.6042 44.3352 87.2511C45.0293 86.8344 45.4796 86.1297 46.1431 85.6525C46.9619 85.0633 47.7242 84.3771 48.4589 83.6961C49.1768 83.0307 49.9097 82.3804 50.6547 81.7498C52.1071 80.5196 53.3891 79.0953 54.9607 77.9993C55.3766 77.7097 55.591 77.2292 56.0612 76.9229C56.6954 76.5103 57.0419 75.6067 57.695 75.2879C58.4157 74.9356 58.4899 73.9789 59.3223 73.8589C60.1073 72.6989 61.3488 71.9708 62.1758 70.8436C62.4211 70.5084 62.7984 70.2707 63.1103 69.9835C63.4554 69.6663 63.8019 69.3506 64.1342 69.0205C64.4366 68.7209 64.5248 68.1859 65.0827 68.1717C65.4201 67.5396 66.0499 67.1716 66.4828 66.6418C67.0376 65.9632 67.8809 65.5528 68.242 64.7073C68.9794 64.6274 68.9985 63.6433 69.7287 63.5258C69.8561 63.5053 69.9463 63.2571 70.0557 63.1153C70.3719 62.7044 70.6342 62.2792 71.1462 62.017C71.5845 61.7925 71.6441 61.1413 72.2489 60.9281C72.5972 60.8049 72.7891 60.2415 73.0403 59.8922C73.2899 59.8518 73.513 59.815 73.7431 59.7777C73.7665 58.883 74.3961 58.5817 75.1232 58.3687C74.9743 57.7912 75.3898 57.336 75.7486 57.1658C76.2098 56.9461 76.4019 56.5844 76.6548 56.2455C77.3932 55.2561 78.4199 54.5199 79.0578 53.4325C79.2216 53.1527 79.6941 53.0545 80.0152 52.878C80.0602 52.7064 80.0875 52.4963 80.1694 52.3108C80.3982 51.7917 80.9394 51.5297 81.1829 50.9678C81.3847 50.5023 81.9067 50.118 82.3736 49.8485C82.6305 49.7 82.5343 49.5169 82.6188 49.419C83.099 48.8644 83.2521 48.0287 84.0826 47.7555C84.2909 47.6865 84.407 47.3375 84.5653 47.1175C85.6999 45.5395 86.8297 43.958 87.9733 42.3863C88.2307 42.0317 88.4846 41.6385 88.8328 41.3963C89.1905 41.1476 88.9496 40.6699 89.3358 40.4625C89.5858 40.3286 89.7765 40.0847 90.0297 39.857C90.1571 39.5835 90.2721 39.208 90.4852 38.9006C91.3099 37.7128 92.1047 36.495 93.0265 35.3851C94.1741 34.0038 94.8812 32.361 95.849 30.8737C96.5465 29.8022 96.8536 28.4763 97.3732 27.1684C97.5943 27.0186 97.9298 26.7913 98.291 26.5463C98.2849 26.4824 98.2715 26.3545 98.2553 26.199C98.6404 26.172 99.0241 26.1453 99.4736 26.1139C99.1847 26.8513 98.9417 27.4705 98.6576 28.1961C98.9942 28.1974 99.2038 28.198 99.4566 28.1991L100.273 27.064C100.518 27.0244 100.696 26.9955 101.012 26.9436C101.018 27.3317 101.025 27.7194 101.033 28.1667C101.275 28.0088 101.414 27.918 101.567 27.8185C102.273 28.1233 102.352 28.7857 102.467 29.4217C102.594 29.4078 102.721 29.395 102.752 29.3915C102.823 29.845 102.892 30.2825 102.973 30.805C102.694 31.0459 102.053 31.1343 102.076 31.8084C102.203 31.7954 102.331 31.782 102.572 31.7568C102.149 32.182 101.78 32.5515 101.412 32.921C101.458 32.9741 101.505 33.0285 101.55 33.0822C101.745 32.9143 101.94 32.7463 102.197 32.5243C102.142 32.9014 102.098 33.2076 102.04 33.6041C101.867 33.5735 101.718 33.548 101.431 33.498C101.294 33.6661 101.084 33.9246 100.827 34.2406C101.112 34.3055 101.32 34.3528 101.701 34.4388C101.508 34.7073 101.396 34.8881 101.26 35.0479C100.274 36.2032 99.8369 37.6922 98.8721 38.8729C97.9014 40.061 97.0942 41.3813 96.1376 42.5821C95.9343 42.8377 96.2297 43.2958 95.7045 43.3898C95.5421 43.4188 95.4712 43.9485 95.307 43.9793C94.7145 44.0911 95.1383 44.5845 94.9123 44.8545C94.5196 45.3231 93.9634 45.5761 93.607 46.1144C92.5342 47.7332 91.3791 49.2996 90.2149 50.8557C89.7766 51.4423 89.1967 51.9215 88.7325 52.4913C88.2565 53.0758 87.8433 53.711 87.36 54.2903C87.7555 53.2111 89.3075 51.1124 90.1296 50.2493C89.9622 50.3782 89.7951 50.5067 89.6276 50.6356C89.6096 50.5492 89.5918 50.4623 89.5733 50.3755C89.0998 51.0341 88.5879 51.6693 88.1615 52.3569C87.5501 53.3434 86.4546 53.9052 85.9397 54.9646C85.4093 55.0837 85.2766 55.713 84.8964 55.8874C84.2909 56.1656 84.5064 56.9196 83.8745 57.1961C83.3973 57.4049 83.0907 58.0034 82.6266 58.5193C82.5597 58.5374 82.3628 58.5906 82.1659 58.6438C82.134 58.5859 82.1021 58.5281 82.0699 58.4706C82.9456 57.4887 83.8214 56.5067 84.7415 55.4758C84.7366 55.4239 84.7202 55.2473 84.7038 55.0708C84.5018 55.1038 84.3234 55.1329 84.1454 55.1624C84.148 55.3266 84.1506 55.4908 84.1567 55.8461C83.8585 55.7267 83.5813 55.6155 83.3041 55.5044L83.3332 55.8702C83.3109 56.0061 83.2887 56.1426 83.2604 56.314C83.1328 56.2572 83.0174 56.2055 82.8514 56.1314C82.4281 56.4935 81.978 56.8792 81.5225 57.269C81.6554 57.5085 81.7549 57.6879 81.868 57.8918C81.4515 58.1754 81.045 58.4528 80.6522 58.7205C80.6385 58.8742 80.6244 59.0411 80.6039 59.2732C80.1639 59.2931 79.7634 59.3108 79.3627 59.3289C79.3962 59.5362 79.4108 59.6257 79.4321 59.7562C79.2058 59.8777 78.968 60.0056 78.7154 60.1413C78.6876 59.9534 78.6613 59.7753 78.6327 59.5808C78.7463 59.554 78.8671 59.5257 79.0521 59.4823C79.1015 59.233 79.1566 58.951 79.2188 58.6362C79.4356 58.7002 79.5955 58.7478 79.7659 58.798C79.8831 58.4143 79.9991 58.034 80.1276 57.6125C80.7788 57.4302 80.8951 56.6678 81.4184 56.2007C81.6151 56.1632 81.8742 56.1137 82.1333 56.0635C81.9533 55.4704 82.5593 55.2274 82.7187 54.7025C82.6253 54.6262 82.5057 54.5285 82.2923 54.3549C82.3019 54.5988 82.3057 54.7112 82.3139 54.9162C82.0767 54.9086 81.8178 54.9007 81.5435 54.8921C81.6071 55.2202 81.6498 55.4402 81.6989 55.693C81.4126 55.8399 81.1295 55.9849 80.8312 56.1374C80.9165 56.6857 80.51 56.8712 80.0763 57.1045C79.7111 57.3007 79.4179 57.6308 79.0712 57.9205C78.8909 57.9012 78.6672 57.8775 78.22 57.8298C78.4444 58.1908 78.5454 58.3535 78.6977 58.5984C78.4198 58.8861 78.1239 59.1928 77.8268 59.4987C77.527 59.8075 77.2779 60.2501 76.9132 60.391C76.4231 60.5794 76.8043 61.1899 76.2571 61.3477C75.8903 61.4533 75.6206 61.8964 75.3102 62.1859C75.4247 62.5029 75.5108 62.74 75.6726 63.1847C75.93 62.7492 76.0859 62.4846 76.3222 62.0836C76.2877 62.0907 76.4505 62.0576 76.6581 62.0152C76.69 62.1233 76.7209 62.2294 76.7625 62.3683C76.8644 62.362 76.9826 62.3545 77.0975 62.3471C77.1091 62.4136 77.1609 62.5188 77.1299 62.5559C76.876 62.8604 76.587 63.1371 76.3481 63.4523C76.0921 63.7914 75.954 64.342 75.6289 64.4782C75.1353 64.685 75.0666 65.1545 74.6911 65.445C74.4762 65.4858 74.2134 65.5352 73.873 65.5997C73.8729 65.846 73.8729 66.0989 73.8728 66.4817C75.2069 65.7534 76.0844 64.6361 77.2604 63.5509C77.0127 64.2677 76.6462 64.705 76.2817 65.0934C76.0651 65.3248 75.7008 65.4157 75.5041 65.7379C75.3481 65.994 74.9086 66.1998 74.9199 66.4107C74.9485 66.9476 74.4577 66.7357 74.3024 66.9627C74.0985 67.2608 73.9075 67.575 73.6644 67.8381C73.3777 68.149 73.0236 68.3961 72.7295 68.7004C72.4619 68.9772 72.2049 69.2383 71.8889 69.4785C71.384 69.8628 71.083 70.5149 70.8639 71.1807C71.1576 70.8363 71.4513 70.4925 71.8758 69.9959C71.5879 71.3368 70.4048 71.7137 69.904 72.6179C69.5653 72.6213 69.2165 72.5689 68.9015 72.6499C68.7429 72.6908 68.6469 72.9734 68.356 73.378C68.7914 73.1447 68.9581 73.0551 69.1275 72.9644C69.1359 73.0482 69.1799 73.1564 69.1451 73.1963C68.7808 73.6186 68.5858 74.1583 67.981 74.415C67.5351 74.604 67.4313 75.2271 66.9019 75.5221C66.2898 75.863 65.8937 76.5724 65.3547 77.0681C64.8243 77.5553 64.3252 78.073 63.7611 78.5305C62.9361 79.1998 62.2302 80.0154 61.409 80.6898C60.59 81.3628 60.0326 82.3213 59.0299 82.7948C58.5247 83.0331 58.3142 83.5959 57.8187 83.9263C56.772 84.6255 55.8806 85.5551 54.9084 86.3697C54.3897 86.8048 53.7986 87.143 53.3692 87.6967C52.8549 88.3591 52.2335 88.5879 51.4755 88.4741C51.5789 88.6667 51.6678 88.831 51.7635 89.0089C51.6321 89.0382 51.5094 89.0657 51.386 89.0934C51.3992 89.2156 51.4129 89.3431 51.4123 89.3389C50.9885 89.6505 50.5173 89.8525 50.2757 90.2099C49.945 90.698 49.4163 90.7491 48.8474 91.2797C48.3496 92.3962 46.7396 92.7142 45.8689 93.9141C45.6521 93.8024 45.4277 93.6876 44.9913 93.4632C45.1687 93.8536 45.2749 94.0867 45.3038 94.1504C44.4434 95.0301 43.5351 95.5335 42.5749 95.9616L42.27 95.7424C42.2331 95.9658 42.2402 96.1552 42.1674 96.3068C42.0708 96.5075 41.9127 96.6781 41.7576 96.8937C41.5617 96.9115 41.3385 96.9323 41.0829 96.9555L40.3857 97.925C40.186 97.8671 40.0255 97.8203 39.8253 97.7622C39.8161 97.9215 39.8076 98.0722 39.7935 98.3176C39.4449 98.3934 39.0712 98.4745 38.7722 98.5394C38.5113 98.391 38.3295 98.2878 38.0027 98.1025C38.1851 98.5883 38.3027 98.9026 38.4276 99.235C37.6947 99.7064 36.8788 100.028 36.2174 100.669C35.6343 101.234 34.7406 101.402 34.0612 101.94C33.6864 102.236 33.0751 102.255 32.8324 102.8C32.3019 102.764 31.9778 103.144 31.5794 103.394C31.0816 103.709 30.7744 104.371 30.1479 104.39C29.5166 104.41 29.2914 105.213 28.6277 105.053C28.2495 105.471 27.6683 105.608 27.2756 105.948C26.8233 106.34 26.3688 106.565 25.8094 106.697C25.6296 106.739 25.4964 106.979 25.2796 107.188Z" fill="#EE7658"/>
<path fill-rule="evenodd" clip-rule="evenodd" d="M103.722 14.7297C103.789 14.8434 103.853 15.0941 103.962 15.1162C105.112 15.342 105.794 16.1984 106.524 16.9827C107.126 17.6285 107.784 18.2664 108.075 19.1103C108.614 20.6739 109.62 22.124 109.337 23.9054C110.008 24.4449 109.178 25.3758 109.859 25.9135C109.688 26.896 110.063 27.834 110.097 28.7994C110.118 29.406 110.158 30.0089 110.223 30.6126C110.248 30.8444 110.1 31.0949 110.008 31.4189C110.114 31.6174 110.271 31.9117 110.47 32.2819C110.447 32.683 110.418 33.1823 110.385 33.756C110.564 33.9006 110.801 34.0918 111.054 34.2952C111.009 34.4551 110.964 34.6157 110.919 34.7763C111.193 35.2924 111.401 34.7613 111.64 34.73C112.025 35.4066 112.051 36.1381 111.976 36.9228C111.454 37.0817 110.924 37.2435 110.342 37.4198L108.868 36.3598C108.6 36.3968 108.335 36.4337 108.057 36.472C107.425 35.8796 106.554 35.5841 106.093 34.7423C105.871 34.3376 105.505 34.0027 105.473 33.512C105.452 33.1989 105.012 32.9965 105.282 32.5782C105.341 32.4862 104.971 32.1254 104.81 31.8809C104.49 31.3952 104.487 30.8088 104.373 30.2713C104.098 28.9916 103.828 27.6956 103.746 26.3944C103.667 25.1035 103.403 23.8157 103.582 22.5065C103.634 22.1238 103.505 21.7177 103.474 21.3215C103.445 20.9378 103.436 20.5523 103.414 20.0625C102.966 20.3309 102.516 20.6011 102 20.9103C102.109 21.0724 102.197 21.2027 102.29 21.3394C101.511 22.2343 100.347 22.671 99.4438 23.5278L98.9524 23.1744C98.1791 23.7566 97.4455 24.3091 96.712 24.8615C96.4031 25.0866 96.6475 25.6771 96.0353 25.8145C96.0738 25.6094 96.1105 25.4135 96.1477 25.2178C95.8657 25.8144 94.6425 25.621 95.0206 26.7443C93.7066 26.8543 93.1816 28.3972 91.7953 28.2874C91.8058 28.3819 91.8201 28.5086 91.8398 28.6814C91.2343 29.0822 90.5473 29.431 89.9972 29.9311C89.4252 30.4497 88.6418 30.1804 87.9482 30.8051C87.5373 31.6159 86.7346 32.2945 85.6442 32.5757C85.2546 32.453 84.8957 32.3395 84.5126 32.219C84.4595 32.0969 84.3963 31.9522 84.3328 31.8079C84.1099 31.8437 83.8867 31.8805 83.6348 31.9217C83.6989 31.5181 83.7619 31.123 83.8253 30.7239C83.589 30.7628 83.3662 30.7993 83.0864 30.845C83.1122 30.5707 83.1371 30.3068 83.1692 29.9623C84.029 29.9056 84.1341 28.9245 84.85 28.5099C85.8562 27.9275 86.6403 26.9734 87.5647 26.2347C88.6441 25.3716 89.7753 24.5727 90.8784 23.7389C92.0518 22.8516 93.2277 21.9702 94.345 21.0058C95.2608 20.2144 96.3653 19.6529 97.2536 18.8111C97.8936 18.7721 97.9428 17.9046 98.5827 17.8648C99.0933 16.975 100.175 16.7202 100.765 15.9115C100.882 15.7504 101.11 15.6736 101.259 15.5295C101.926 14.8846 102.619 14.3273 103.722 14.7297Z" fill="#EE7658"/>
</svg>
